<?xml version="1.0" standalone="no"?>
<!DOCTYPE svg PUBLIC "-//W3C//DTD SVG 20010904//EN"
 "http://www.w3.org/TR/2001/REC-SVG-20010904/DTD/svg10.dtd">
<svg version="1.0" xmlns="http://www.w3.org/2000/svg"
 width="512.000000pt" height="512.000000pt" viewBox="0 0 512.000000 512.000000"
 preserveAspectRatio="xMidYMid meet">

<g transform="translate(0.000000,512.000000) scale(0.100000,-0.100000)"
fill="#000000" stroke="none">
<path d="M935 3795 l-25 -24 2 -1128 3 -1128 1648 -3 1647 -2 0 1130 0 1131
-25 24 -24 25 -1601 0 -1601 0 -24 -25z m3153 -1127 l-3 -1033 -1525 0 -1525
0 -3 1033 -2 1032 1530 0 1530 0 -2 -1032z"/>
<path d="M1680 3140 c0 -6 107 -10 300 -10 193 0 300 4 300 10 0 6 -107 10
-300 10 -193 0 -300 -4 -300 -10z"/>
<path d="M2875 3080 c-11 -4 -36 -23 -56 -42 -30 -27 -38 -43 -44 -85 -8 -58
0 -106 19 -122 11 -9 15 5 21 71 5 60 10 77 15 62 5 -12 13 -25 18 -28 9 -5
88 -13 160 -15 18 -1 22 -7 22 -33 0 -18 4 -40 10 -48 7 -11 11 -9 19 13 14
36 14 91 0 140 -18 67 -119 115 -184 87z"/>
<path d="M3047 2779 c-19 -27 -23 -63 -5 -57 20 7 36 42 29 62 -7 18 -8 18
-24 -5z"/>
<path d="M2801 2775 c0 -11 4 -27 9 -35 9 -13 10 -13 9 0 0 8 -4 24 -9 35 l-9
20 0 -20z"/>
<path d="M2797 2623 c-10 -10 -56 -34 -104 -53 -53 -22 -92 -44 -101 -59 l-16
-23 132 3 c148 4 139 -3 119 92 -12 55 -13 57 -30 40z"/>
<path d="M3027 2619 c-3 -13 -9 -48 -13 -78 -6 -49 -5 -54 10 -48 10 4 69 7
132 7 93 0 112 3 108 14 -6 15 -122 70 -171 82 -15 4 -35 16 -44 27 -16 20
-16 20 -22 -4z"/>
<path d="M3423 2599 c66 -159 91 -215 97 -222 4 -5 12 5 18 22 14 40 24 39 57
-5 l28 -36 25 25 25 26 -33 37 -32 37 41 21 41 21 -132 50 c-73 28 -136 52
-141 54 -4 1 -2 -12 6 -30z"/>
<path d="M2907 2539 c-19 -27 -14 -39 18 -39 33 0 41 18 17 42 -19 20 -20 20
-35 -3z"/>
</g>
</svg>
